<svg id="Layer_5" enable-background="new 0 0 64 64" height="512" viewBox="0 0 64 64" width="512" xmlns="http://www.w3.org/2000/svg"><g><path d="m18 21c1.654 0 3-1.346 3-3s-1.346-3-3-3-3 1.346-3 3 1.346 3 3 3zm0-4c.551 0 1 .449 1 1s-.449 1-1 1-1-.449-1-1 .449-1 1-1z"/><path d="m50.707 11.293-.707-.707v-3.586h-2v4.414l1.293 1.293z"/><path d="m57 17c0 1.654 1.346 3 3 3s3-1.346 3-3v-2c0-1.654-1.346-3-3-3s-3 1.346-3 3h-3.11c1.3-1.272 2.11-3.042 2.11-5 0-3.86-3.14-7-7-7s-7 3.14-7 7c0 2.373 1.189 4.47 3 5.736v11.264h-2v-1c0-1.069-.566-2.003-1.41-2.534.869-.9 1.41-2.119 1.41-3.466 0-2.69-2.14-4.874-4.804-4.98l-16.196-3.24v-2.78h1c1.302 0 2.402-.839 2.816-2h4.184v1c0 1.654 1.346 3 3 3s3-1.346 3-3v-4c0-1.654-1.346-3-3-3s-3 1.346-3 3v1h-4.184c-.414-1.161-1.514-2-2.816-2h-10c-1.302 0-2.402.839-2.816 2h-2.184c-1.654 0-3 1.346-3 3v14h-2v8.356c-1.248 1.545-2 3.508-2 5.644v12c0 4.962 4.038 9 9 9h2.495l-.4 4h-2.095v2h14v-2h-2.095l-.4-4h20.99l-.4 4h-2.095v2h14v-2h-2.095l-.4-4h2.495c4.962 0 9-4.038 9-9v-12c0-4.962-4.038-9-9-9h-1v-10zm2-2c0-.551.449-1 1-1s1 .449 1 1v2c0 .551-.449 1-1 1s-1-.449-1-1zm-27-11c0-.551.449-1 1-1s1 .449 1 1v4c0 .551-.449 1-1 1s-1-.449-1-1zm12 6c0-2.757 2.243-5 5-5s5 2.243 5 5-2.243 5-5 5-5-2.243-5-5zm-29 17v-1c0-.551.449-1 1-1h24c.551 0 1 .449 1 1v1zm3-14c2.757 0 5 2.243 5 5s-2.243 5-5 5-5-2.243-5-5 2.243-5 5-5zm16.026 10h-11.136c1.3-1.272 2.11-3.042 2.11-5 0-1.404-.419-2.71-1.134-3.807l10.75 2.15c-.987.914-1.616 2.209-1.616 3.657 0 1.13.391 2.162 1.026 3zm6.974-3c0 1.654-1.346 3-3 3s-3-1.346-3-3 1.346-3 3-3 3 1.346 3 3zm-21-8.705c-.634-.19-1.305-.295-2-.295s-1.366.105-2 .295v-2.295h4zm-7-6.295h10c.551 0 1 .449 1 1s-.449 1-1 1h-10c-.551 0-1-.449-1-1s.449-1 1-1zm-6 3c0-.551.449-1 1-1h2.184c.414 1.161 1.514 2 2.816 2h1v3.264c-1.811 1.267-3 3.364-3 5.736 0 2.385 1.201 4.493 3.028 5.757-.625.55-1.028 1.347-1.028 2.243v1h-3c-.338 0-.671.022-1 .059v-5.059h-2zm0 16v3.525c-.711.252-1.384.583-2 .997v-4.522zm-4 24v-12c0-3.519 2.613-6.432 6-6.92v25.84c-3.387-.488-6-3.401-6-6.92zm11.105 13 .8-8h4.19l.8 8zm30 0 .8-8h4.19l.8 8zm6.8-10h-7.81l-.4 4h-21.39l-.4-4h-7.81l-.4 4h-1.695v-26h42v26h-1.695zm10.095-15v12c0 3.519-2.613 6.432-6 6.92v-25.84c3.387.488 6 3.401 6 6.92zm-14-9v-10.295c.634.19 1.305.295 2 .295s1.366-.105 2-.295v10.295z"/><path d="m45 37c-3.309 0-6 2.691-6 6s2.691 6 6 6 6-2.691 6-6-2.691-6-6-6zm1 9.858v-5.858h-2v5.858c-1.72-.447-3-2-3-3.858 0-2.206 1.794-4 4-4s4 1.794 4 4c0 1.858-1.28 3.411-3 3.858z"/><path d="m29 31h-14c-1.103 0-2 .897-2 2v8c0 1.103.897 2 2 2h14c1.103 0 2-.897 2-2v-8c0-1.103-.897-2-2-2zm-14 10v-8h14l.001 8z"/><path d="m57 41h2v2h-2z"/><path d="m57 49h2v2h-2z"/><path d="m57 45h2v2h-2z"/><path d="m5 37h2v2h-2z"/><path d="m5 33h2v2h-2z"/><path d="m5 41h2v2h-2z"/></g></svg>