<svg id="Capa_1" enable-background="new 0 0 512 512" height="512" viewBox="0 0 512 512" width="512" xmlns="http://www.w3.org/2000/svg"><g><path d="m448.884 393.767v-62.838c0-5.523-4.478-10-10-10h-365.768c-5.522 0-10 4.477-10 10v62.838c0 40.887 20.862 76.993 52.501 98.233h-37.877c-5.522 0-10 4.477-10 10s4.478 10 10 10h356.52c5.522 0 10-4.477 10-10s-4.478-10-10-10h-37.877c31.639-21.24 52.501-57.346 52.501-98.233zm-118.233 98.233h-149.301c-54.166 0-98.233-44.067-98.233-98.233v-52.838h345.768v52.838c-.001 54.166-44.068 98.233-98.234 98.233z"/><path d="m139.855 242.437c16.693 0 30.274-13.581 30.274-30.274 0-14.385-17.913-32.446-23.402-37.64-3.855-3.646-9.889-3.647-13.744 0-5.489 5.193-23.401 23.254-23.401 37.639-.001 16.694 13.58 30.275 30.273 30.275zm.005-46.189c5.729 6.58 10.151 13.238 10.269 15.925-.006 5.66-4.612 10.264-10.274 10.264-5.665 0-10.273-4.609-10.273-10.259.11-2.668 4.541-9.334 10.278-15.93z"/><path d="m189.223 240.119c-5.489 5.193-23.401 23.254-23.401 37.639 0 16.693 13.581 30.274 30.273 30.274s30.273-13.581 30.273-30.274c0-14.385-17.912-32.446-23.401-37.639-3.856-3.647-9.889-3.647-13.744 0zm17.145 37.65c-.006 5.66-4.612 10.264-10.273 10.264-5.665 0-10.273-4.609-10.273-10.259.11-2.667 4.539-9.33 10.273-15.923 5.731 6.59 10.157 13.246 10.273 15.918z"/><path d="m137.339 155.365 45.684 11.695 119.077 119.078c5.646 5.645 13.061 8.467 20.476 8.467s14.83-2.822 20.476-8.467l90.888-90.888c11.289-11.29 11.289-29.66 0-40.951l-151.372-151.37c-3.906-3.905-10.236-3.905-14.143 0l-135.677 135.678c-2.54 2.541-3.522 6.249-2.573 9.713s3.684 6.154 7.164 7.045zm138.158-131.223 144.299 144.299c3.492 3.492 3.492 9.175 0 12.667l-90.888 90.888c-3.492 3.491-9.174 3.492-12.666 0l-25.286-25.286 10.593-10.593c3.905-3.905 3.905-10.237 0-14.143-3.906-3.905-10.236-3.905-14.143 0l-10.593 10.593-28.936-28.936 10.593-10.593c3.905-3.905 3.905-10.237 0-14.143-3.906-3.905-10.236-3.905-14.143 0l-10.593 10.593-31.436-31.436 61.61-61.61c3.905-3.905 3.905-10.237 0-14.143-3.904-3.904-10.236-3.905-14.143 0l-64.652 64.651-25.817-6.609z"/></g></svg>