<svg id="Layer_1" enable-background="new 0 0 512 512" height="512" viewBox="0 0 512 512" width="512" xmlns="http://www.w3.org/2000/svg"><g><g><path d="m270.367 497h-225.387c-6.881 0-12.48-5.599-12.48-12.48v-388.647c0-4.142-3.358-7.5-7.5-7.5s-7.5 3.358-7.5 7.5v388.647c0 15.152 12.328 27.48 27.48 27.48h225.387c4.143 0 7.5-3.358 7.5-7.5s-3.357-7.5-7.5-7.5z"/><path d="m82.5 79h96c4.142 0 7.5-3.358 7.5-7.5s-3.358-7.5-7.5-7.5h-96c-4.142 0-7.5 3.358-7.5 7.5s3.358 7.5 7.5 7.5z"/><path d="m178.5 444c4.142 0 7.5-3.358 7.5-7.5s-3.358-7.5-7.5-7.5h-96c-4.142 0-7.5 3.358-7.5 7.5s3.358 7.5 7.5 7.5z"/><path d="m487.91 442.881-77.074-77.075c-.01-.01-.021-.018-.03-.028l-26.262-26.27c11.302-15.255 19.717-32.513 24.668-50.864 6.7-24.832 7.018-51.168.916-76.164-.982-4.024-5.041-6.487-9.064-5.508-4.024.982-6.49 5.041-5.508 9.064 5.503 22.546 5.218 46.303-.825 68.7-6.228 23.077-18.508 44.264-35.515 61.27-53.609 53.611-140.842 53.611-194.454 0-53.611-53.611-53.611-140.843 0-194.454 25.97-25.971 60.5-40.273 97.227-40.273s71.257 14.302 97.228 40.273c10.734 10.735 19.545 23.018 26.184 36.508 1.83 3.716 6.326 5.249 10.041 3.417 3.717-1.829 5.247-6.325 3.418-10.041-4.063-8.254-8.881-16.081-14.359-23.454v-130.502c-.001-15.152-12.329-27.48-27.481-27.48h-312.04c-15.152 0-27.48 12.328-27.48 27.48v36.393c0 4.142 3.358 7.5 7.5 7.5s7.5-3.358 7.5-7.5v-36.393c0-6.881 5.599-12.48 12.48-12.48h312.04c6.882 0 12.48 5.599 12.48 12.48v113.151c-28.767-28.601-66.927-44.351-107.511-44.351-40.734 0-79.03 15.863-107.833 44.667-.284.284-.558.575-.839.861h-47.97c-4.142 0-7.5 3.358-7.5 7.5s3.358 7.5 7.5 7.5h34.999c-4.562 6.025-8.617 12.313-12.165 18.808h-45.681c-4.142 0-7.5 3.358-7.5 7.5s3.358 7.5 7.5 7.5h38.525c-2.529 6.151-4.641 12.434-6.332 18.808h-32.193c-4.142 0-7.5 3.358-7.5 7.5s3.358 7.5 7.5 7.5h29.012c-7.497 46.709 6.711 96.258 42.644 132.191 29.73 29.73 68.782 44.595 107.833 44.595 31.951 0 63.9-9.957 90.746-29.859l16.765 16.76v96.411c0 6.881-5.599 12.48-12.48 12.48h-55.024c-4.143 0-7.5 3.358-7.5 7.5s3.357 7.5 7.5 7.5h55.024c15.152 0 27.48-12.328 27.48-27.48v-81.409l71.59 71.589c4.25 4.25 9.9 6.59 15.91 6.59s11.66-2.341 15.909-6.59h.001c4.249-4.25 6.59-9.9 6.59-15.91 0-6.011-2.341-11.662-6.59-15.911zm-118.087-86.267c1.772-1.772 3.483-3.599 5.161-5.451l19.94 19.946-10.604 10.604-19.934-19.926c1.844-1.672 3.658-3.394 5.437-5.173zm107.481 107.48c-1.417 1.417-3.301 2.197-5.304 2.197s-3.887-.78-5.303-2.197l-71.772-71.771 10.607-10.606 71.771 71.772c1.416 1.417 2.196 3.299 2.196 5.303.001 2.002-.779 3.885-2.195 5.302z"/><path d="m175.369 162.16c-23.103 23.103-35.826 53.865-35.826 86.621s12.724 63.518 35.826 86.621c23.881 23.881 55.25 35.822 86.62 35.822 31.369 0 62.739-11.94 86.621-35.822 23.103-23.103 35.825-53.865 35.825-86.621 0-32.755-12.723-63.518-35.825-86.621-47.764-47.764-125.478-47.763-173.241 0zm162.634 162.634c-20.959 20.959-48.481 31.438-76.014 31.436-27.525-.003-55.059-10.481-76.014-31.436-20.27-20.27-31.433-47.265-31.433-76.014s11.163-55.745 31.433-76.014c20.957-20.957 48.485-31.436 76.014-31.436s55.057 10.479 76.014 31.436c20.27 20.27 31.433 47.265 31.433 76.014s-11.164 55.745-31.433 76.014z"/></g></g></svg>