<?xml version="1.0" encoding="iso-8859-1"?>
<!-- Generator: Adobe Illustrator 16.0.0, SVG Export Plug-In . SVG Version: 6.00 Build 0)  -->
<!DOCTYPE svg PUBLIC "-//W3C//DTD SVG 1.1//EN" "http://www.w3.org/Graphics/SVG/1.1/DTD/svg11.dtd">
<svg version="1.1" id="Capa_1" xmlns="http://www.w3.org/2000/svg" xmlns:xlink="http://www.w3.org/1999/xlink" x="0px" y="0px"
	 width="79.993px" height="79.993px" viewBox="0 0 79.993 79.993" style="enable-background:new 0 0 79.993 79.993;"
	 xml:space="preserve">
<g>
	<path d="M60.122,21.33V10.104h0.26c1.056,0,1.909-0.854,1.909-1.908c0-1.055-0.854-1.908-1.909-1.908h-0.26V6.261H2.289v0.028
		H1.907C0.854,6.289,0,7.143,0,8.197c0,1.054,0.854,1.908,1.907,1.908h0.382v63.628h57.833V41.417
		c4.677,1.543,9.112,2.486,12.603,2.486c3.396,0,5.903-0.881,6.877-2.928C82.143,35.63,71.934,27.226,60.122,21.33z M57.23,70.841
		H5.18V20.502c0.813,0.376,1.835,0.864,3.013,1.125v19.936c0,0.864,0.7,1.566,1.567,1.566c0.864,0,1.564-0.702,1.564-1.566V21.606
		c0.303-1.007-0.06-3.417,3.014-1.611c5.356,3.148,3.555-4.035,4.097-2.817v16.687c0,0.864,0.7,1.566,1.566,1.566
		c0.865,0,1.565-0.702,1.565-1.566V15.832c-0.481-1.137,1.438-1.663,3.321-1.084c1.884,0.578,3.14,2.138,3.14,2.138l0.01-0.006
		c-0.094,0.292-0.159,0.599-0.159,0.922c0,1.112,0.614,2.073,1.515,2.588c0.565,2.015,2.256,4.332,5.037,6.861
		c3.934,3.579,9.657,7.241,16.116,10.313c2.205,1.048,4.454,1.994,6.685,2.831V70.841z M57.23,37.307
		c-1.742-0.682-3.559-1.457-5.441-2.354C45.581,32,40.105,28.505,36.375,25.111c-2.194-1.995-3.379-3.592-3.921-4.776
		c0.846-0.529,1.412-1.462,1.412-2.533c0-1.642-1.322-2.972-2.963-2.99l3.918-5.659H57.23V37.307z M76.991,39.732
		c-0.896,1.878-7.481,1.854-16.869-1.368V24.572C71.99,30.742,78.051,37.505,76.991,39.732z"/>
</g>
<g>
</g>
<g>
</g>
<g>
</g>
<g>
</g>
<g>
</g>
<g>
</g>
<g>
</g>
<g>
</g>
<g>
</g>
<g>
</g>
<g>
</g>
<g>
</g>
<g>
</g>
<g>
</g>
<g>
</g>
</svg>
