<svg id="icons" enable-background="new 0 0 64 64" height="512" viewBox="0 0 64 64" width="512" xmlns="http://www.w3.org/2000/svg"><g><g><path d="m47.502 39.996h-10.006c-.553 0-1-.447-1-1v-9.001c0-.553.447-1 1-1h10.006c.553 0 1 .447 1 1v9.001c0 .553-.447 1-1 1zm-9.006-2h8.006v-7.001h-8.006z"/></g><g><path d="m23.496 62.014h-9.008c-.553 0-1-.447-1-1s.447-1 1-1h8.308l7.769-21.359c.144-.396.519-.658.939-.658h2v-7.001h-7.004v6.003c0 .553-.447 1-1 1h-8.998c-.553 0-1-.447-1-1s.447-1 1-1h7.998v-6.003c0-.553.447-1 1-1h9.004c.553 0 1 .447 1 1v9.001c0 .553-.447 1-1 1h-2.3l-7.769 21.359c-.143.395-.518.658-.939.658z"/></g><g><path d="m47.502 38.997c-.553 0-1-.447-1-1 0-1.654 1.346-3 3-3 .553 0 1 .447 1 1s-.447 1-1 1c-.552 0-1 .448-1 1 0 .553-.447 1-1 1z"/></g><g><path d="m49.502 33.996c-1.654 0-3-1.346-3-3 0-.553.447-1 1-1s1 .447 1 1c0 .552.448 1 1 1 .553 0 1 .447 1 1s-.447 1-1 1z"/></g><g><path d="m51.502 36.997h-2c-.553 0-1-.447-1-1s.447-1 1-1h1v-1h-1c-.553 0-1-.447-1-1s.447-1 1-1h2c.553 0 1 .447 1 1v3c0 .553-.447 1-1 1z"/></g><g><path d="m37.496 49.994c-.553 0-1-.447-1-1v-9.998c0-.553.447-1 1-1s1 .447 1 1v9.998c0 .553-.447 1-1 1z"/></g><g><path d="m40.496 52.994c-2.206 0-4-1.794-4-4 0-.553.447-1 1-1s1 .447 1 1c0 1.103.897 2 2 2 .553 0 1 .447 1 1s-.447 1-1 1z"/></g><g><path d="m37.502 52.994c-2.206 0-4-1.794-4-4 0-.553.447-1 1-1s1 .447 1 1c0 1.103.897 2 2 2 .553 0 1 .447 1 1s-.447 1-1 1z"/></g><g><path d="m40.496 52.994h-2.994c-.553 0-1-.447-1-1s.447-1 1-1h2.994c.553 0 1 .447 1 1s-.447 1-1 1z"/></g><g><path d="m34.502 49.994c-.553 0-1-.447-1-1v-18.999c0-.553.447-1 1-1s1 .447 1 1v18.999c0 .553-.447 1-1 1z"/></g><g><path d="m37.496 30.995h-2.994c-.553 0-1-.447-1-1s.447-1 1-1h2.994c.553 0 1 .447 1 1s-.447 1-1 1z"/></g><g><path d="m25.5 35h-5c-.553 0-1-.447-1-1v-4.005c0-.553.447-1 1-1h5c.553 0 1 .447 1 1v4.005c0 .553-.447 1-1 1zm-4-2h3v-2.005h-3z"/></g><g><path d="m20.5 33h-3c-.553 0-1-.447-1-1s.447-1 1-1h3c.553 0 1 .447 1 1s-.447 1-1 1z"/></g><g><path d="m17.5 35.001c-.553 0-1-.447-1-1v-4.002c0-.553.447-1 1-1s1 .447 1 1v4.002c0 .553-.447 1-1 1z"/></g><g><path d="m16.496 39.006h-3c-.553 0-1-.447-1-1s.447-1 1-1h3c.553 0 1 .447 1 1s-.447 1-1 1z"/></g><g><path d="m13.496 42c-.553 0-1-.447-1-1v-2.993c0-.553.447-1 1-1s1 .447 1 1v2.993c0 .553-.447 1-1 1z"/></g><g><path d="m14.488 62.014c-.113 0-.229-.02-.342-.061-.519-.188-.787-.763-.598-1.281l8.734-24.016c.188-.52.761-.786 1.281-.598.519.188.787.763.598 1.281l-8.734 24.016c-.147.407-.531.659-.939.659z"/></g><g><path d="m16.502 42c-.553 0-1-.447-1-1v-4.002c0-.553.447-1 1-1s1 .447 1 1v4.002c0 .553-.447 1-1 1z"/></g><g><path d="m21.768 42h-9.27c-.553 0-1-.447-1-1s.447-1 1-1h9.27c.553 0 1 .447 1 1s-.448 1-1 1z"/></g><g><path d="m32.5 54h-6.09c-.553 0-1-.447-1-1s.447-1 1-1h6.09c.553 0 1 .447 1 1s-.447 1-1 1z"/></g><g><path d="m44.502 39.996c-.553 0-1-.447-1-1v-9.001c0-.553.447-1 1-1s1 .447 1 1v9.001c0 .553-.447 1-1 1z"/></g><g><path d="m38.78 22.079c-.316 0-.629-.15-.822-.43-.315-.454-.202-1.077.251-1.392 1.358-.942 1.697-2.815.756-4.176-.314-.454-.201-1.077.253-1.392s1.077-.201 1.392.253c1.568 2.267 1.003 5.388-1.26 6.957-.174.122-.373.18-.57.18z"/></g><g><path d="m38.024 26.255c-.317 0-.629-.15-.822-.431-.61-.878-.841-1.941-.65-2.992s.779-1.965 1.657-2.574c.454-.317 1.078-.202 1.392.252.315.453.202 1.076-.252 1.391-.906.629-1.132 1.878-.504 2.785.315.453.202 1.076-.252 1.391-.173.12-.372.178-.569.178z"/></g><g><path d="m28.289 28.49c-1.586 0-3.146-.75-4.116-2.148-.315-.454-.202-1.077.251-1.392.454-.317 1.079-.201 1.392.251.458.659 1.144 1.101 1.932 1.244.783.14 1.584-.03 2.243-.487.454-.317 1.078-.201 1.392.251.315.454.202 1.077-.251 1.392-.868.601-1.861.889-2.843.889z"/></g><g><path d="m34.737 28.534c-.316 0-.628-.15-.822-.43-.306-.439-.763-.734-1.288-.829-.524-.095-1.057.02-1.496.325-.455.316-1.076.203-1.392-.251-.315-.453-.203-1.077.251-1.392.879-.61 1.939-.843 2.992-.65 1.052.189 1.966.778 2.575 1.656.315.454.202 1.077-.251 1.392-.173.122-.372.179-.569.179z"/></g><g><path d="m24.999 26.771c-.314 0-.623-.147-.818-.423l-8.104-11.478c-.318-.451-.211-1.075.24-1.395.453-.317 1.075-.21 1.395.24l8.104 11.479c.318.451.211 1.075-.24 1.395-.177.123-.378.182-.577.182z"/></g><g><path d="m39.786 16.518c-.314 0-.623-.147-.818-.423l-8.104-11.48c-.318-.452-.211-1.075.24-1.395.454-.317 1.075-.21 1.395.24l8.104 11.48c.318.452.211 1.075-.24 1.395-.176.123-.378.183-.577.183z"/></g><g><path d="m16.071 15.858c-.316 0-.629-.15-.822-.43l-1.709-2.464c-.151-.219-.21-.487-.163-.748.048-.262.196-.493.414-.644l16.43-11.395c.219-.151.49-.209.748-.163.262.048.493.196.645.415l1.709 2.465c.314.453.201 1.076-.252 1.391l-16.43 11.395c-.174.121-.373.178-.57.178zm-.318-3.212.569.82 14.786-10.253-.569-.821z"/></g><g><path d="m41.308 30.987c-.317 0-.629-.15-.822-.43l-3.283-4.734c-.315-.454-.202-1.077.251-1.392.454-.317 1.078-.201 1.392.251l3.283 4.734c.315.454.202 1.077-.251 1.392-.175.122-.374.179-.57.179z"/></g><g><path d="m36.417 30.959c-.317 0-.629-.15-.823-.431l-1.68-2.425c-.314-.454-.201-1.077.253-1.392s1.076-.201 1.392.253l1.68 2.425c.314.454.201 1.077-.253 1.392-.174.12-.373.178-.569.178z"/></g><g><path d="m34.737 28.534c-.317 0-.629-.15-.822-.431-.315-.453-.202-1.076.252-1.391l3.287-2.279c.452-.317 1.077-.202 1.391.252.315.453.202 1.076-.252 1.391l-3.287 2.279c-.173.122-.372.179-.569.179z"/></g><g><path d="m20.5 64c-.553 0-1-.447-1-1v-1.986c0-.553.447-1 1-1s1 .447 1 1v1.986c0 .553-.447 1-1 1z"/></g><g><path d="m17.5 64c-.553 0-1-.447-1-1v-1.986c0-.553.447-1 1-1s1 .447 1 1v1.986c0 .553-.447 1-1 1z"/></g></g></svg>